<svg xmlns="http://www.w3.org/2000/svg" style="display:none" aria-hidden="true">

<defs><style>
  symbol{fill:none;stroke:currentColor;stroke-width:1.6;stroke-linecap:round;stroke-linejoin:round}
  symbol .fill{fill:currentColor;stroke:none}
</style></defs>


<symbol id="i-send" viewBox="0 0 24 24"><path d="M12 20V5"></path><path d="M6 11l6-6 6 6"></path></symbol>

<symbol id="i-reset" viewBox="0 0 24 24"><path d="M19.5 12a7.5 7.5 0 1 1-2.2-5.3"></path><path d="M19.7 4.5v3.3h-3.3"></path></symbol>

<symbol id="i-keep" viewBox="0 0 24 24"><path d="M7 4.5h10v15l-5-3.6-5 3.6z"></path></symbol>

<symbol id="i-visitor" viewBox="0 0 24 24"><circle cx="12" cy="8.5" r="3.3"></circle><path d="M5.5 19.2a6.6 6.6 0 0 1 13 0"></path></symbol>

<symbol id="i-avatar" viewBox="0 0 24 24"><rect x="5" y="7.5" width="14" height="11.5" rx="2.4"></rect><path d="M12 7.5V4.4"></path><circle cx="12" cy="3.4" r="1.05" class="fill"></circle><circle cx="9.4" cy="13" r="1.05" class="fill"></circle><circle cx="14.6" cy="13" r="1.05" class="fill"></circle><path d="M9.4 16.4h5.2"></path></symbol>

<symbol id="i-spark" viewBox="0 0 24 24"><path d="M12 3.2l1.9 6.5 6.5 1.9-6.5 1.9L12 20l-1.9-6.5L3.6 11.6l6.5-1.9z"></path></symbol>

<symbol id="i-bell" viewBox="0 0 24 24"><path d="M6.2 9.4a5.8 5.8 0 0 1 11.6 0c0 4.7 1.9 5.9 1.9 5.9H4.3s1.9-1.2 1.9-5.9z"></path><path d="M10.2 19.2a2 2 0 0 0 3.6 0"></path></symbol>

<symbol id="i-inbox" viewBox="0 0 24 24"><path d="M4 13.2l2.4-7h11.2L20 13.2v4.6a1 1 0 0 1-1 1H5a1 1 0 0 1-1-1z"></path><path d="M4 13.2h4l1.1 2.1h5.8L16 13.2h4"></path></symbol>

<symbol id="i-search" viewBox="0 0 24 24"><circle cx="10.8" cy="10.8" r="6.2"></circle><path d="M15.4 15.4L20 20"></path></symbol>

<symbol id="i-sliders" viewBox="0 0 24 24"><path d="M5 8h7M16 8h3M5 16h3M12 16h7"></path><circle cx="14" cy="8" r="2"></circle><circle cx="10" cy="16" r="2"></circle></symbol>

<symbol id="i-sun" viewBox="0 0 24 24"><circle cx="12" cy="12" r="4"></circle><path d="M12 2.6v2.4M12 19v2.4M2.6 12h2.4M19 12h2.4M5.3 5.3l1.7 1.7M17 17l1.7 1.7M18.7 5.3L17 7M7 17l-1.7 1.7"></path></symbol>

<symbol id="i-moon" viewBox="0 0 24 24"><path d="M20 14.2A8 8 0 0 1 9.8 4 8 8 0 1 0 20 14.2z"></path></symbol>

<symbol id="i-check" viewBox="0 0 24 24"><path d="M5 12.5l4.2 4.3L19 7"></path></symbol>

<symbol id="i-check2" viewBox="0 0 24 24"><path d="M3.5 12.6l3.8 3.9L15.4 8"></path><path d="M11 16l.4.5L20 8"></path></symbol>

<symbol id="i-dot" viewBox="0 0 24 24"><circle cx="12" cy="12" r="4.5" class="fill"></circle></symbol>

<symbol id="i-lock" viewBox="0 0 24 24"><rect x="5" y="10.5" width="14" height="9.5" rx="2"></rect><path d="M8 10.5V8a4 4 0 0 1 8 0v2.5"></path><path d="M12 14.5v2.2"></path></symbol>

<symbol id="i-mail" viewBox="0 0 24 24"><rect x="3.5" y="5.5" width="17" height="13" rx="2"></rect><path d="M4 7l8 5.5L20 7"></path></symbol>

<symbol id="i-chev-up" viewBox="0 0 24 24"><path d="M6 14.5l6-6 6 6"></path></symbol>
<symbol id="i-chev-down" viewBox="0 0 24 24"><path d="M6 9.5l6 6 6-6"></path></symbol>
<symbol id="i-chev-right" viewBox="0 0 24 24"><path d="M9.5 6l6 6-6 6"></path></symbol>
<symbol id="i-chev-left" viewBox="0 0 24 24"><path d="M14.5 6l-6 6 6 6"></path></symbol>

<symbol id="i-enter" viewBox="0 0 24 24"><path d="M20 6.5v4a3 3 0 0 1-3 3H5"></path><path d="M9 9.5l-4 4 4 4"></path></symbol>

<symbol id="i-tool" viewBox="0 0 24 24"><rect x="5" y="6" width="14" height="12" rx="2"></rect><path d="M8.5 10.5l2 1.5-2 1.5"></path><path d="M12.5 14h3"></path></symbol>

<symbol id="i-copy" viewBox="0 0 24 24"><rect x="8.5" y="8.5" width="11" height="11" rx="2"></rect><path d="M15.5 8.5V6a1.5 1.5 0 0 0-1.5-1.5H6A1.5 1.5 0 0 0 4.5 6v8A1.5 1.5 0 0 0 6 15.5h2.5"></path></symbol>

<symbol id="i-close" viewBox="0 0 24 24"><path d="M6.5 6.5l11 11M17.5 6.5l-11 11"></path></symbol>

<symbol id="i-menu" viewBox="0 0 24 24"><path d="M4.5 7.5h15M4.5 12h15M4.5 16.5h15"></path></symbol>

<symbol id="i-external" viewBox="0 0 24 24"><path d="M14 5h5v5"></path><path d="M19 5l-8 8"></path><path d="M18 14v4a1.5 1.5 0 0 1-1.5 1.5h-10A1.5 1.5 0 0 1 5 18V8a1.5 1.5 0 0 1 1.5-1.5H10"></path></symbol>

<symbol id="i-clock" viewBox="0 0 24 24"><circle cx="12" cy="12" r="8"></circle><path d="M12 7.5V12l3 2"></path></symbol>

<symbol id="i-shield" viewBox="0 0 24 24"><path d="M12 3.2l7 2.6v5.2c0 4.6-3.1 7.6-7 8.8-3.9-1.2-7-4.2-7-8.8V5.8z"></path><path d="M9 12l2 2 4-4"></path></symbol>

<symbol id="i-edit" viewBox="0 0 24 24"><path d="M5 19h4l9-9-4-4-9 9z"></path><path d="M13.5 6.5l4 4"></path></symbol>

<symbol id="i-arrow-right" viewBox="0 0 24 24"><path d="M4.5 12h14"></path><path d="M13 6.5l5.5 5.5L13 17.5"></path></symbol>

<symbol id="i-arrow-left" viewBox="0 0 24 24"><path d="M19.5 12h-14"></path><path d="M11 6.5L5.5 12 11 17.5"></path></symbol>

<symbol id="i-eye" viewBox="0 0 24 24"><path d="M2.8 12S6 5.8 12 5.8 21.2 12 21.2 12 18 18.2 12 18.2 2.8 12 2.8 12z"></path><circle cx="12" cy="12" r="2.6"></circle></symbol>

<symbol id="i-live" viewBox="0 0 24 24"><circle cx="12" cy="12" r="2.2" class="fill"></circle><path d="M7.8 7.8a6 6 0 0 0 0 8.4M16.2 16.2a6 6 0 0 0 0-8.4"></path><path d="M5 5a9.5 9.5 0 0 0 0 14M19 19a9.5 9.5 0 0 0 0-14"></path></symbol>

<symbol id="i-logout" viewBox="0 0 24 24"><path d="M14 7.5V6a1.5 1.5 0 0 0-1.5-1.5h-6A1.5 1.5 0 0 0 5 6v12a1.5 1.5 0 0 0 1.5 1.5h6A1.5 1.5 0 0 0 14 18v-1.5"></path><path d="M10 12h10"></path><path d="M17 9l3 3-3 3"></path></symbol>

<symbol id="i-linkedin" viewBox="0 0 24 24"><path class="fill" d="M20.447 20.452h-3.554v-5.569c0-1.328-.027-3.037-1.852-3.037-1.853 0-2.136 1.445-2.136 2.939v5.667H9.351V9h3.414v1.561h.046c.477-.9 1.637-1.85 3.37-1.85 3.601 0 4.267 2.37 4.267 5.455v6.286zM5.337 7.433a2.062 2.062 0 0 1-2.063-2.065 2.064 2.064 0 1 1 2.063 2.065zm1.782 13.019H3.555V9h3.564v11.452zM22.225 0H1.771C.792 0 0 .774 0 1.729v20.542C0 23.227.792 24 1.771 24h20.451C23.2 24 24 23.227 24 22.271V1.729C24 .774 23.2 0 22.222 0h.003z"></path></symbol>

<symbol id="i-github" viewBox="0 0 24 24"><path class="fill" d="M12 .297c-6.63 0-12 5.373-12 12 0 5.303 3.438 9.8 8.205 11.385.6.113.82-.258.82-.577 0-.285-.01-1.04-.015-2.04-3.338.724-4.042-1.61-4.042-1.61C4.422 18.07 3.633 17.7 3.633 17.7c-1.087-.744.084-.729.084-.729 1.205.084 1.838 1.236 1.838 1.236 1.07 1.835 2.809 1.305 3.495.998.108-.776.417-1.305.76-1.605-2.665-.305-5.467-1.334-5.467-5.931 0-1.311.469-2.381 1.236-3.221-.124-.303-.535-1.524.117-3.176 0 0 1.008-.322 3.301 1.23A11.509 11.509 0 0 1 12 6.844c1.02.005 2.047.138 3.006.404 2.291-1.552 3.297-1.23 3.297-1.23.653 1.653.242 2.874.118 3.176.77.84 1.235 1.911 1.235 3.221 0 4.609-2.807 5.624-5.479 5.921.43.372.823 1.102.823 2.222 0 1.606-.014 2.898-.014 3.293 0 .322.216.694.825.576C20.565 22.092 24 17.592 24 12.297c0-6.627-5.373-12-12-12"></path></symbol>

</svg>
