<svg xmlns="http://www.w3.org/2000/svg" style="display:none" aria-hidden="true">

<defs>
  
</defs>


<symbol id="i-send" viewBox="0 0 24 24"><path d="M12 20V5"></path><path d="M6 11l6-6 6 6"></path></symbol>

<symbol id="i-reset" viewBox="0 0 24 24"><path d="M19.5 12a7.5 7.5 0 1 1-2.2-5.3"></path><path d="M19.7 4.5v3.3h-3.3"></path></symbol>

<symbol id="i-keep" viewBox="0 0 24 24"><path d="M7 4.5h10v15l-5-3.6-5 3.6z"></path></symbol>

<symbol id="i-visitor" viewBox="0 0 24 24"><circle cx="12" cy="8.5" r="3.3"></circle><path d="M5.5 19.2a6.6 6.6 0 0 1 13 0"></path></symbol>

<symbol id="i-avatar" viewBox="0 0 24 24"><rect x="5" y="7.5" width="14" height="11.5" rx="2.4"></rect><path d="M12 7.5V4.4"></path><circle cx="12" cy="3.4" r="1.05" class="fill"></circle><circle cx="9.4" cy="13" r="1.05" class="fill"></circle><circle cx="14.6" cy="13" r="1.05" class="fill"></circle><path d="M9.4 16.4h5.2"></path></symbol>

<symbol id="i-spark" viewBox="0 0 24 24"><path d="M12 3.2l1.9 6.5 6.5 1.9-6.5 1.9L12 20l-1.9-6.5L3.6 11.6l6.5-1.9z"></path></symbol>

<symbol id="i-bell" viewBox="0 0 24 24"><path d="M6.2 9.4a5.8 5.8 0 0 1 11.6 0c0 4.7 1.9 5.9 1.9 5.9H4.3s1.9-1.2 1.9-5.9z"></path><path d="M10.2 19.2a2 2 0 0 0 3.6 0"></path></symbol>

<symbol id="i-inbox" viewBox="0 0 24 24"><path d="M4 13.2l2.4-7h11.2L20 13.2v4.6a1 1 0 0 1-1 1H5a1 1 0 0 1-1-1z"></path><path d="M4 13.2h4l1.1 2.1h5.8L16 13.2h4"></path></symbol>

<symbol id="i-search" viewBox="0 0 24 24"><circle cx="10.8" cy="10.8" r="6.2"></circle><path d="M15.4 15.4L20 20"></path></symbol>

<symbol id="i-sliders" viewBox="0 0 24 24"><path d="M5 8h7M16 8h3M5 16h3M12 16h7"></path><circle cx="14" cy="8" r="2"></circle><circle cx="10" cy="16" r="2"></circle></symbol>

<symbol id="i-sun" viewBox="0 0 24 24"><circle cx="12" cy="12" r="4"></circle><path d="M12 2.6v2.4M12 19v2.4M2.6 12h2.4M19 12h2.4M5.3 5.3l1.7 1.7M17 17l1.7 1.7M18.7 5.3L17 7M7 17l-1.7 1.7"></path></symbol>

<symbol id="i-moon" viewBox="0 0 24 24"><path d="M20 14.2A8 8 0 0 1 9.8 4 8 8 0 1 0 20 14.2z"></path></symbol>

<symbol id="i-check" viewBox="0 0 24 24"><path d="M5 12.5l4.2 4.3L19 7"></path></symbol>

<symbol id="i-check2" viewBox="0 0 24 24"><path d="M3.5 12.6l3.8 3.9L15.4 8"></path><path d="M11 16l.4.5L20 8"></path></symbol>

<symbol id="i-dot" viewBox="0 0 24 24"><circle cx="12" cy="12" r="4.5" class="fill"></circle></symbol>

<symbol id="i-lock" viewBox="0 0 24 24"><rect x="5" y="10.5" width="14" height="9.5" rx="2"></rect><path d="M8 10.5V8a4 4 0 0 1 8 0v2.5"></path><path d="M12 14.5v2.2"></path></symbol>

<symbol id="i-mail" viewBox="0 0 24 24"><rect x="3.5" y="5.5" width="17" height="13" rx="2"></rect><path d="M4 7l8 5.5L20 7"></path></symbol>

<symbol id="i-chev-up" viewBox="0 0 24 24"><path d="M6 14.5l6-6 6 6"></path></symbol>
<symbol id="i-chev-down" viewBox="0 0 24 24"><path d="M6 9.5l6 6 6-6"></path></symbol>
<symbol id="i-chev-right" viewBox="0 0 24 24"><path d="M9.5 6l6 6-6 6"></path></symbol>

<symbol id="i-enter" viewBox="0 0 24 24"><path d="M20 6.5v4a3 3 0 0 1-3 3H5"></path><path d="M9 9.5l-4 4 4 4"></path></symbol>

<symbol id="i-tool" viewBox="0 0 24 24"><rect x="5" y="6" width="14" height="12" rx="2"></rect><path d="M8.5 10.5l2 1.5-2 1.5"></path><path d="M12.5 14h3"></path></symbol>

<symbol id="i-copy" viewBox="0 0 24 24"><rect x="8.5" y="8.5" width="11" height="11" rx="2"></rect><path d="M15.5 8.5V6a1.5 1.5 0 0 0-1.5-1.5H6A1.5 1.5 0 0 0 4.5 6v8A1.5 1.5 0 0 0 6 15.5h2.5"></path></symbol>

<symbol id="i-close" viewBox="0 0 24 24"><path d="M6.5 6.5l11 11M17.5 6.5l-11 11"></path></symbol>

<symbol id="i-menu" viewBox="0 0 24 24"><path d="M4.5 7.5h15M4.5 12h15M4.5 16.5h15"></path></symbol>

<symbol id="i-external" viewBox="0 0 24 24"><path d="M14 5h5v5"></path><path d="M19 5l-8 8"></path><path d="M18 14v4a1.5 1.5 0 0 1-1.5 1.5h-10A1.5 1.5 0 0 1 5 18V8a1.5 1.5 0 0 1 1.5-1.5H10"></path></symbol>

<symbol id="i-clock" viewBox="0 0 24 24"><circle cx="12" cy="12" r="8"></circle><path d="M12 7.5V12l3 2"></path></symbol>

<symbol id="i-shield" viewBox="0 0 24 24"><path d="M12 3.2l7 2.6v5.2c0 4.6-3.1 7.6-7 8.8-3.9-1.2-7-4.2-7-8.8V5.8z"></path><path d="M9 12l2 2 4-4"></path></symbol>

<symbol id="i-edit" viewBox="0 0 24 24"><path d="M5 19h4l9-9-4-4-9 9z"></path><path d="M13.5 6.5l4 4"></path></symbol>

<symbol id="i-arrow-right" viewBox="0 0 24 24"><path d="M4.5 12h14"></path><path d="M13 6.5l5.5 5.5L13 17.5"></path></symbol>

<symbol id="i-eye" viewBox="0 0 24 24"><path d="M2.8 12S6 5.8 12 5.8 21.2 12 21.2 12 18 18.2 12 18.2 2.8 12 2.8 12z"></path><circle cx="12" cy="12" r="2.6"></circle></symbol>

<symbol id="i-live" viewBox="0 0 24 24"><circle cx="12" cy="12" r="2.2" class="fill"></circle><path d="M7.8 7.8a6 6 0 0 0 0 8.4M16.2 16.2a6 6 0 0 0 0-8.4"></path><path d="M5 5a9.5 9.5 0 0 0 0 14M19 19a9.5 9.5 0 0 0 0-14"></path></symbol>
</svg>